<?xml version="1.0" encoding="UTF-8" standalone="no"?>
<!-- Created with Inkscape (http://www.inkscape.org/) -->

<svg
   width="96"
   height="96"
   viewBox="0 0 25.399999 25.4"
   version="1.1"
   id="svg1"
   xml:space="preserve"
   xmlns="http://www.w3.org/2000/svg"
   xmlns:svg="http://www.w3.org/2000/svg"><defs
     id="defs1" /><g
     style="fill:currentColor"
     id="g1"
     transform="scale(0.26458333)"><path
       d="M 32.129033,77.305339 Q 31.935484,78.100252 31.161291,78.100252 30,78.100252 30,77.305339 q 0.193549,-0.596186 0.967742,-0.596186 0.967742,0 1.161291,0.596186 z m -6,-0.794914 q -0.193549,0.596185 0.774193,0.993641 0.967741,0.198729 1.16129,-0.397456 0.193549,-0.794913 -0.774193,-0.993641 -0.967742,-0.198729 -1.16129,0.397456 z m 8.516128,-0.397456 q -0.967742,0.198728 -0.967742,0.993641 0.193548,0.596185 1.16129,0.596185 0.967742,-0.397456 0.967742,-0.993642 -0.193549,-0.596184 -1.16129,-0.596184 z M 47.419356,0 Q 26.709677,0.39745675 13.548387,13.910987 v 0 0 Q 0.38709677,27.424515 0,48.489725 0.19354839,65.381635 9.0967742,78.100252 18,90.818867 32.903226,95.985805 q 3.483872,0.198729 3.290323,-2.384739 0,-0.794915 0,-2.980925 0,-4.570754 0,-9.141507 -0.387098,0 -3.677421,0.397457 -3.48387,0.198728 -7.354837,-0.794913 -3.870968,-1.19237 -5.419356,-5.564396 0,-0.397455 -1.548386,-3.179653 -1.548387,-2.583469 -3.870969,-4.173296 -0.387096,-0.198728 -1.548387,-1.589826 -1.354838,-1.192372 1.935485,-1.3911 0.193548,-0.198727 2.709677,0.794915 2.516129,0.794913 4.645161,4.372022 3.48387,5.365668 7.548386,5.365668 4.258065,0 6.580647,-1.192372 0.774193,-4.76948 3.096774,-6.756763 Q 30.774193,67.36892 24.387098,63.394352 18,59.618513 17.612903,45.707525 q 0,-3.974566 1.16129,-6.558035 0.967742,-2.58347 3.290323,-4.968209 -0.387097,-1.19237 -0.774193,-4.769481 -0.387097,-3.577111 1.354838,-8.744048 3.483872,-0.596187 8.129032,2.186012 4.838709,2.583468 5.225807,3.179653 0,0 0,0 5.806451,-1.788556 12.193549,-1.788556 6.193549,0 12.193549,1.788556 0,-0.198728 2.516128,-1.788556 2.322581,-1.589826 5.419355,-2.782196 3.096775,-1.3911 5.419354,-0.794913 1.741937,5.166937 1.354839,8.744048 -0.387097,3.577111 -0.967741,4.769481 2.322581,2.384739 3.677418,4.968209 1.35484,2.583469 1.35484,6.558035 -0.193549,9.538964 -3.290324,14.109717 -3.290323,4.372023 -8.322581,5.961852 -5.032258,1.589826 -10.64516,1.987283 3.096774,2.186013 3.290323,9.141505 0,7.35295 0,13.116072 0,2.58347 0,3.577112 Q 60,96.184534 63.483872,95.985805 78.193549,90.818867 87.096774,78.100252 95.806451,65.381635 96,48.489725 95.806451,34.578737 89.419356,23.648677 82.838709,12.718617 72,6.3593081 60.967742,0.19872838 47.419356,0 Z M 18.774193,68.56129 q -0.387096,0.397457 0.193549,0.993641 0.580644,0.596187 0.967742,0.198729 0.387097,-0.397457 -0.193549,-0.993642 -0.387096,-0.596185 -0.967742,-0.198728 z m -2.129031,-1.589826 q 0,0.397456 0.580645,0.794913 Q 17.806451,67.965105 18,67.567648 18.193549,67.17019 17.612903,66.772735 17.032258,66.574007 16.645162,66.971464 Z m 6.387096,6.955492 Q 22.645161,74.52314 23.225807,75.318054 24,75.91424 24.580644,75.516782 24.774193,74.920599 24.193549,74.125686 23.419356,73.529499 23.032258,73.926956 Z M 20.709677,71.14476 q -0.387096,0.397456 0,1.192369 0.580646,0.596185 1.16129,0.397457 0.387098,-0.397457 0,-1.19237 -0.580644,-0.794913 -1.16129,-0.397456 z"
       id="path1"
       style="fill:#ff7b7b;fill-opacity:1;stroke-width:0.189993" /></g></svg>
